<svg width="46" height="46" viewBox="0 0 46 46" fill="none" xmlns="http://www.w3.org/2000/svg">
<path d="M8.48944 37.9497C7.45841 37.9497 6.5761 37.5829 5.8425 36.8493C5.10891 36.1157 4.74148 35.2328 4.74023 34.2005V11.7053C4.74023 10.6742 5.10766 9.79192 5.8425 9.05832C6.57735 8.32473 7.45966 7.9573 8.48944 7.95605H38.4831C39.5141 7.95605 40.3971 8.32348 41.1319 9.05832C41.8668 9.79317 42.2336 10.6755 42.2323 11.7053V34.2005C42.2323 35.2315 41.8655 36.1145 41.1319 36.8493C40.3983 37.5842 39.5154 37.951 38.4831 37.9497H8.48944ZM23.4863 24.8275L8.48944 15.4545V34.2005H38.4831V15.4545L23.4863 24.8275ZM23.4863 21.0783L38.4831 11.7053H8.48944L23.4863 21.0783ZM8.48944 15.4545V11.7053V34.2005V15.4545Z" fill="white"/>
</svg>
