<svg width="46" height="46" viewBox="0 0 46 46" fill="none" xmlns="http://www.w3.org/2000/svg">
<path d="M15.3576 4.20703H31.1042C37.103 4.20703 41.9769 9.081 41.9769 15.0797V30.8264C41.9769 33.71 40.8314 36.4755 38.7924 38.5146C36.7534 40.5536 33.9879 41.6991 31.1042 41.6991H15.3576C9.35883 41.6991 4.48486 36.8251 4.48486 30.8264V15.0797C4.48486 12.1961 5.63038 9.4306 7.6694 7.39157C9.70843 5.35255 12.4739 4.20703 15.3576 4.20703ZM14.9826 7.95624C13.1928 7.95624 11.4763 8.66725 10.2107 9.93285C8.94508 11.1985 8.23407 12.915 8.23407 14.7048V31.2013C8.23407 34.9318 11.2522 37.9499 14.9826 37.9499H31.4792C33.269 37.9499 34.9855 37.2389 36.2511 35.9733C37.5167 34.7077 38.2277 32.9912 38.2277 31.2013V14.7048C38.2277 10.9744 35.2096 7.95624 31.4792 7.95624H14.9826ZM33.0726 10.7681C33.694 10.7681 34.2901 11.015 34.7295 11.4545C35.169 11.8939 35.4158 12.4899 35.4158 13.1114C35.4158 13.7329 35.169 14.3289 34.7295 14.7683C34.2901 15.2078 33.694 15.4547 33.0726 15.4547C32.4511 15.4547 31.8551 15.2078 31.4156 14.7683C30.9762 14.3289 30.7293 13.7329 30.7293 13.1114C30.7293 12.4899 30.9762 11.8939 31.4156 11.4545C31.8551 11.015 32.4511 10.7681 33.0726 10.7681ZM23.2309 13.5801C25.7168 13.5801 28.1008 14.5676 29.8586 16.3253C31.6164 18.0831 32.6039 20.4672 32.6039 22.9531C32.6039 25.439 31.6164 27.823 29.8586 29.5808C28.1008 31.3386 25.7168 32.3261 23.2309 32.3261C20.745 32.3261 18.361 31.3386 16.6032 29.5808C14.8454 27.823 13.8579 25.439 13.8579 22.9531C13.8579 20.4672 14.8454 18.0831 16.6032 16.3253C18.361 14.5676 20.745 13.5801 23.2309 13.5801ZM23.2309 17.3293C21.7394 17.3293 20.3089 17.9218 19.2543 18.9764C18.1996 20.0311 17.6071 21.4615 17.6071 22.9531C17.6071 24.4446 18.1996 25.875 19.2543 26.9297C20.3089 27.9844 21.7394 28.5769 23.2309 28.5769C24.7224 28.5769 26.1529 27.9844 27.2075 26.9297C28.2622 25.875 28.8547 24.4446 28.8547 22.9531C28.8547 21.4615 28.2622 20.0311 27.2075 18.9764C26.1529 17.9218 24.7224 17.3293 23.2309 17.3293Z" fill="white"/>
</svg>
