<svg width="62" height="75" viewBox="0 0 62 75" fill="none" xmlns="http://www.w3.org/2000/svg">
<path d="M0.744873 28.1644L3.10642 19.2632L61.8725 0.734131L42.7985 65.6766L20.9996 71.1263L37.0781 16.9616L0.744873 28.1644Z" fill="#1D2368"/>
<path d="M31.1724 22.2605L20.5803 25.531L6.28542 74.7594L16.4582 72.2162L31.1724 22.2605Z" fill="#1D2368"/>
<path d="M51.792 34.7028L56.6059 18.5353L56.3334 18.172L55.6976 17.5362L54.971 16.8095L53.881 16.0829L53.0636 15.6288L51.9736 15.1746L50.7929 14.8113L49.5213 14.6296H48.2497L46.3423 14.9021L44.7074 15.2654L43.2541 15.8104L42.3458 16.3554L41.2559 17.1728L40.6201 17.8995L40.0751 18.6261L39.5301 19.6252L39.1668 20.6243L38.8035 21.8959L38.531 23.6217V24.6208V31.9779L38.4402 33.7945L38.2585 35.0661L37.986 36.3377H38.2585L39.2576 36.2468L39.9843 35.9744L40.8926 35.5202L41.5284 34.9752L42.255 34.2486L43.0724 33.0678L43.6174 31.8871L43.9807 30.7063L44.344 29.5255L44.4349 28.1631V27.4365L45.2523 27.709L45.7973 27.8906L46.7964 28.0723H48.068L48.8855 27.8906L49.4304 27.6181L50.3387 27.0732L51.0653 26.2557L51.5195 25.4382L51.8828 24.6208L52.0645 24.0758V22.8042L51.8828 22.0776L51.6103 21.4418L50.9745 20.6243L50.3387 20.0794L49.5213 19.716L48.7946 19.5344H47.7047L46.9781 19.716L45.8881 20.0794L45.1615 20.5335L45.434 20.6243L45.7973 20.7152L46.0698 20.806L46.4331 20.9876L46.8872 21.351L47.2506 21.8051V22.6226L47.0689 23.0767L46.5239 23.6217L45.7973 24.0758H44.7074L44.1624 23.985L43.4358 23.7125L42.9816 23.1675L42.7091 22.8042L42.5275 22.3501V21.0785L42.8 20.4427L43.3449 19.6252L43.9807 18.8986L44.7982 18.2628L45.7065 17.8086L46.7964 17.4453H49.3396L50.6112 17.8086L51.4287 18.172L52.2461 18.6261L53.1544 19.4436L53.6086 19.9885L54.0627 20.8968L54.3352 21.7143V23.0767V23.8033L54.0627 24.8024L53.5177 26.2557L53.0636 27.164L52.1553 28.5264L51.1562 29.8888L50.2479 30.7971L49.158 31.7054L47.9772 32.5229L46.7056 33.3403L45.3432 34.1578L43.7991 35.0661L41.6192 36.3377L40.4384 37.0643L38.8035 38.2451L36.8961 39.7892L35.5337 41.0608L34.0804 42.6048L33.1721 43.7856L32.4455 44.9664L31.628 46.783L31.0831 48.327L30.7198 49.962L30.4473 51.4152V53.4134L30.5381 54.3217L30.7198 55.23L30.9922 56.2291L31.4464 57.4099L31.9914 58.409L32.718 59.4081L33.5354 60.3164L34.6254 61.1339L35.4428 61.588L36.7144 62.0422L37.7136 62.3146H40.0751L41.2559 62.0422L42.8908 61.588L44.1624 61.043L50.9745 37.9726L49.7029 38.4267L48.5222 38.9717L47.3414 39.6983L46.5239 40.425L45.7065 41.3332L45.1615 42.1507L44.7982 43.1498L44.6165 44.4214V46.5105L44.1624 46.3288L43.2541 46.0563L42.4366 45.7838H40.9834L40.1659 45.9655L39.1668 46.3288L38.531 46.783L38.0769 47.2371L37.7136 47.7821L37.2594 48.7812L36.9869 49.7803V51.0519L37.1686 51.5969L37.4411 52.3235L37.8952 52.9593L38.6218 53.6859L39.2576 54.2309L40.2568 54.7759L41.2559 55.0484H41.8008L41.5284 54.5942L41.0742 53.6859L40.7109 52.8685V51.506L40.8926 51.0519L41.5284 50.4161L42.1642 49.8711H42.6183H43.2541L43.7082 50.0528L44.2532 50.3253L44.7074 50.8702L45.2523 51.7785L45.5248 52.5052V53.6859L45.434 54.3217L45.1615 55.0484L44.6165 55.8658L43.8899 56.5924L43.2541 57.1374L42.1642 57.6824L40.9834 58.1365H38.0769L37.2594 57.7732L36.3511 57.2282L35.6245 56.5016L35.0795 55.6842L34.6254 54.685L34.3529 53.6859V53.0501V50.6886L34.7162 49.3262L35.352 47.7821L36.1695 46.238L37.3502 44.5122L38.7127 42.9682L40.4384 41.4241L41.6192 40.6066L43.9807 39.335L46.2514 38.1542L50.2479 35.7927L51.792 34.7028Z" fill="#1A9AD6"/>
</svg>
