<svg width="36" height="36" viewBox="0 0 36 36" fill="none" xmlns="http://www.w3.org/2000/svg">
<path d="M32.1205 31.0196L23.7985 22.6976C25.7983 20.2968 26.7956 17.2174 26.5828 14.1C26.37 10.9826 24.9636 8.06728 22.656 5.96046C20.3485 3.85364 17.3176 2.71756 14.1938 2.78854C11.0699 2.85952 8.09372 4.1321 5.88427 6.34155C3.67482 8.551 2.40224 11.5272 2.33126 14.651C2.26028 17.7749 3.39637 20.8058 5.50319 23.1133C7.61 25.4208 10.5253 26.8273 13.6427 27.0401C16.7601 27.2529 19.8395 26.2556 22.2403 24.2558L30.5624 32.5778L32.1205 31.0196ZM4.57146 14.9464C4.57146 12.9849 5.15312 11.0674 6.24289 9.43644C7.33265 7.80549 8.88158 6.53432 10.6938 5.78367C12.506 5.03303 14.5001 4.83662 16.424 5.2193C18.3478 5.60197 20.115 6.54654 21.502 7.93355C22.889 9.32056 23.8336 11.0877 24.2162 13.0116C24.5989 14.9354 24.4025 16.9295 23.6519 18.7417C22.9012 20.5539 21.63 22.1029 19.9991 23.1926C18.3681 24.2824 16.4507 24.8641 14.4891 24.8641C11.8597 24.8612 9.33879 23.8153 7.4795 21.956C5.62021 20.0967 4.57437 17.5758 4.57146 14.9464Z" fill="white"/>
</svg>
