<svg width="46" height="46" viewBox="0 0 46 46" fill="none" xmlns="http://www.w3.org/2000/svg">
<path d="M31.0326 26.7023C31.1826 25.465 31.295 24.2278 31.295 22.9531C31.295 21.6783 31.1826 20.4411 31.0326 19.2039H37.3688C37.6687 20.4036 37.8562 21.6596 37.8562 22.9531C37.8562 24.2465 37.6687 25.5025 37.3688 26.7023M27.7145 37.1251C28.8393 35.0443 29.7016 32.7947 30.3015 30.4515H35.8316C34.0154 33.5788 31.134 35.9478 27.7145 37.1251ZM27.2459 26.7023H18.4727C18.2853 25.465 18.1728 24.2278 18.1728 22.9531C18.1728 21.6783 18.2853 20.4224 18.4727 19.2039H27.2459C27.4146 20.4224 27.5458 21.6783 27.5458 22.9531C27.5458 24.2278 27.4146 25.465 27.2459 26.7023ZM22.8593 37.8749C21.3034 35.6254 20.0474 33.1322 19.2788 30.4515H26.4398C25.6712 33.1322 24.4152 35.6254 22.8593 37.8749ZM15.3609 15.4547H9.88706C11.6845 12.3188 14.5638 9.94611 17.9854 8.78107C16.8606 10.8619 16.017 13.1114 15.3609 15.4547ZM9.88706 30.4515H15.3609C16.017 32.7947 16.8606 35.0443 17.9854 37.1251C14.571 35.9472 11.6958 33.5778 9.88706 30.4515ZM8.34989 26.7023C8.04995 25.5025 7.86249 24.2465 7.86249 22.9531C7.86249 21.6596 8.04995 20.4036 8.34989 19.2039H14.686C14.5361 20.4411 14.4236 21.6783 14.4236 22.9531C14.4236 24.2278 14.5361 25.465 14.686 26.7023M22.8593 8.01248C24.4152 10.262 25.6712 12.774 26.4398 15.4547H19.2788C20.0474 12.774 21.3034 10.262 22.8593 8.01248ZM35.8316 15.4547H30.3015C29.7148 13.1329 28.846 10.8917 27.7145 8.78107C31.1638 9.96207 34.032 12.3428 35.8316 15.4547ZM22.8593 4.20703C12.4928 4.20703 4.11328 12.6427 4.11328 22.9531C4.11328 27.9248 6.0883 32.693 9.60387 36.2085C11.3446 37.9493 13.4111 39.3301 15.6855 40.2722C17.9599 41.2142 20.3976 41.6991 22.8593 41.6991C27.8311 41.6991 32.5992 39.7241 36.1148 36.2085C39.6303 32.693 41.6054 27.9248 41.6054 22.9531C41.6054 20.4913 41.1205 18.0536 40.1784 15.7793C39.2363 13.5049 37.8555 11.4384 36.1148 9.69762C34.374 7.95689 32.3075 6.57607 30.0331 5.63399C27.7587 4.69191 25.3211 4.20703 22.8593 4.20703Z" fill="white"/>
</svg>
